<svg width="32" height="32" viewBox="0 0 32 32" fill="none" xmlns="http://www.w3.org/2000/svg">
<path d="M14.816 31.1534L12.9486 25.6447C11.9173 22.6023 9.51664 20.1229 6.35527 19.0513L0.846585 17.184C-0.282289 16.8013 -0.282101 15.1986 0.846585 14.816L6.35527 12.9486C9.39764 11.9174 11.877 9.51654 12.9486 6.35521L14.816 0.846566C15.1987 -0.282314 16.8014 -0.282064 17.184 0.846566L19.0514 6.35521C20.0827 9.3976 22.4834 11.877 25.6448 12.9486L31.1534 14.816C32.2823 15.1987 32.2821 16.8014 31.1534 17.184L25.6448 19.0513C22.6025 20.0826 20.123 22.4834 19.0514 25.6447L17.184 31.1534C16.8013 32.2824 15.1986 32.282 14.816 31.1534ZM5.14208 15.9999L7.15802 16.6833C10.9226 17.9594 13.9906 20.9301 15.3167 24.842L16 26.8579L16.6834 24.842C17.9595 21.0773 20.9302 18.0093 24.8421 16.6833L26.8579 15.9999L24.842 15.3166C21.0774 14.0404 18.0094 11.0697 16.6833 7.15784L16 5.1419L15.3166 7.15784C14.0405 10.9225 11.0698 13.9905 7.15802 15.3166L5.14208 15.9999Z" fill="#FFA944"/>
</svg>
